<svg width="40" height="32" viewBox="0 0 40 32" fill="none" xmlns="http://www.w3.org/2000/svg">
<path d="M20.8255 18.1597C19.3311 18.1542 17.8465 17.9684 16.4225 17.6087C14.1473 17.0046 12.4574 15.476 11.9987 13.6072C11.4967 11.6885 12.4115 9.6598 14.5078 8.04139C14.7327 7.86754 14.9665 7.701 15.209 7.54179C17.3554 6.11571 20.2492 5.62012 22.9456 6.2168C25.5561 6.87803 27.3599 8.77132 27.4502 10.9448C27.5479 12.1959 27.0341 13.4288 26.0156 14.3869C25.23 15.1721 23.9573 15.543 22.718 15.3478C22.2112 15.2644 21.7691 15.0208 21.4933 14.6732C21.2459 14.3355 21.1824 13.9324 21.3176 13.5569C21.9006 11.808 22.4933 9.1502 22.4992 9.12327C22.5406 8.93709 22.704 8.78258 22.9279 8.71795C23.1518 8.65332 23.4021 8.68838 23.5846 8.80993C23.767 8.93148 23.8539 9.12105 23.8125 9.30723C23.7878 9.41781 23.2041 12.0357 22.6068 13.8273C22.5641 13.9266 22.5749 14.0354 22.6364 14.1282C22.7286 14.2295 22.8677 14.2975 23.023 14.3173C23.7817 14.4178 24.548 14.1763 25.013 13.6901C25.8039 12.9392 26.2002 11.9754 26.1196 10.9988C26.0545 9.26876 24.6249 7.75832 22.5494 7.22657C20.2838 6.73205 17.8568 7.15452 16.06 8.35613C15.8458 8.49723 15.6375 8.64494 15.4376 8.79943C14.4012 9.59949 12.7462 11.2596 13.3039 13.3917C13.6786 14.8813 15.0191 16.1021 16.8273 16.6003C19.9539 17.3918 24.4467 17.4871 26.8139 15.1512C27.0465 14.929 27.4607 14.8959 27.7445 15.0769C28.0282 15.2579 28.0765 15.5861 27.853 15.8141C26.1025 17.5417 23.4388 18.1597 20.8255 18.1597Z" fill="#FF614D"/>
<path d="M18.5432 15.4167C17.8385 15.4263 17.1512 15.2429 16.597 14.8974C15.3174 14.0847 15.2822 12.6729 15.6409 11.7114C15.7617 11.3912 15.9239 11.0818 16.125 10.7881C16.6252 9.98715 17.425 9.32841 18.415 8.90202C19.6479 8.39433 21.1543 8.58686 22.124 9.37607C22.605 9.79447 22.9674 10.2899 23.1866 10.8289C23.3027 11.1025 23.1211 11.3994 22.7785 11.4962C22.4359 11.5931 22.0587 11.4541 21.9308 11.1839C21.7727 10.7857 21.51 10.4186 21.16 10.1069C20.5946 9.64804 19.7137 9.54364 19.0041 9.85138C18.2616 10.1837 17.6649 10.6882 17.2941 11.2973C17.1382 11.5255 17.0124 11.7658 16.9184 12.0144C16.6594 12.7099 16.7163 13.6175 17.4312 14.0718C18.2127 14.5699 19.5312 14.3593 20.273 13.8514C20.8258 13.4565 21.3008 12.9979 21.6821 12.491C21.8056 12.3269 22.0311 12.2283 22.272 12.2333C22.5128 12.2383 22.7316 12.346 22.8441 12.5151C22.9566 12.6842 22.9454 12.8883 22.8148 13.049C22.3631 13.6462 21.8008 14.1862 21.1468 14.6506C20.4178 15.1388 19.497 15.4097 18.5432 15.4167Z" fill="#FF614D"/>
<path d="M38 31.9206H2C0.895933 31.9196 0.00121247 31.2096 0 30.3334V10.7579C1.048e-05 10.5528 0.149478 10.3661 0.383522 10.279C0.617566 10.1919 0.893988 10.22 1.0928 10.3511L17.4509 21.1401C18.931 22.1102 21.0705 22.1098 22.5501 21.1393L38.9067 10.3511C39.1055 10.2197 39.3821 10.1914 39.6164 10.2786C39.8506 10.3658 40.0002 10.5526 40 10.7579V30.3334C39.9988 31.2096 39.1041 31.9196 38 31.9206ZM1.33333 11.8855V30.3334C1.33381 30.6254 1.63201 30.8621 2 30.8625H38C38.3681 30.8622 38.6663 30.6255 38.6667 30.3334V11.8855L23.4014 21.9537C21.4276 23.2482 18.5738 23.2485 16.5996 21.9545L1.33333 11.8855Z" fill="#FF614D"/>
<path d="M0.668052 11.2871C0.377672 11.2873 0.120522 11.1384 0.0322956 10.9188C-0.0559305 10.6993 0.0450636 10.4596 0.281985 10.3264L6.28199 6.95095C6.58238 6.78572 6.9944 6.84325 7.20571 7.07992C7.41701 7.31658 7.3488 7.64414 7.05279 7.81428L1.05279 11.1897C0.940436 11.2532 0.805943 11.2872 0.668052 11.2871Z" fill="#FF614D"/>
<path d="M39.3326 11.2871C39.1947 11.2872 39.0602 11.2532 38.9479 11.1897L32.9479 7.81428C32.6519 7.64414 32.5837 7.31658 32.795 7.07992C33.0063 6.84325 33.4183 6.78572 33.7187 6.95095L39.7187 10.3264C39.9556 10.4596 40.0566 10.6993 39.9683 10.9188C39.8801 11.1384 39.623 11.2873 39.3326 11.2871Z" fill="#FF614D"/>
<path d="M26.1595 3.88027C26.0215 3.88033 25.8868 3.84628 25.7743 3.78287L22.5877 1.98933C21.1084 0.99732 18.9468 0.986987 17.4526 1.96478L14.226 3.78292C14.0316 3.89228 13.7785 3.91107 13.562 3.83219C13.3455 3.75332 13.1985 3.58877 13.1763 3.40053C13.1541 3.21229 13.2602 3.02895 13.4545 2.91959L16.6412 1.12605C18.6102 -0.151665 21.4446 -0.141502 23.399 1.15028L26.5457 2.91938C26.7828 3.05258 26.8839 3.29232 26.7956 3.51197C26.7073 3.73163 26.45 3.88062 26.1595 3.88027Z" fill="#FF614D"/>
<path d="M1.09999 31.6349C0.819037 31.6351 0.568083 31.4955 0.472505 31.2858C0.376927 31.0762 0.457242 30.8414 0.673325 30.6989L15.8867 20.6678C16.0695 20.5445 16.3217 20.5086 16.5471 20.5739C16.7725 20.6392 16.9363 20.7956 16.976 20.9834C17.0157 21.1712 16.9251 21.3615 16.7389 21.4815L1.52552 31.5126C1.40608 31.5917 1.25549 31.6349 1.09999 31.6349Z" fill="#FF614D"/>
<path d="M38.899 31.6349C38.7436 31.6349 38.5931 31.5917 38.4739 31.5126L23.2605 21.4815C23.0743 21.3615 22.9837 21.1712 23.0234 20.9834C23.0631 20.7956 23.2269 20.6392 23.4523 20.5739C23.6777 20.5086 23.9299 20.5445 24.1127 20.6678L39.3257 30.6989C39.5418 30.8414 39.6221 31.0762 39.5265 31.2858C39.4309 31.4955 39.18 31.6351 38.899 31.6349V31.6349Z" fill="#FF614D"/>
<path d="M33.3333 15.2445C32.9652 15.2445 32.6667 15.0076 32.6667 14.7154V3.88426C32.6648 3.89537 32.638 3.8804 32.5933 3.88014H7.4067C7.37723 3.8787 7.34831 3.88692 7.3267 3.90289L7.33336 14.7154C7.33336 15.0076 7.03489 15.2445 6.6667 15.2445C6.29851 15.2445 6.00003 15.0076 6.00003 14.7154V3.88014C6.02154 3.28012 6.65056 2.80695 7.4067 2.822H32.5933C33.3495 2.80701 33.9784 3.28015 34 3.88014V14.7154C34 15.0076 33.7015 15.2445 33.3333 15.2445Z" fill="#FF614D"/>
</svg>
