<svg width="149" height="50" viewBox="0 0 149 50" fill="none" xmlns="http://www.w3.org/2000/svg">
<path d="M57.8863 42.2085C51.7447 43.5467 50.4121 36.8777 51.2117 33.9402C52.0114 31.0027 52.1446 25.0111 52.1446 25.0111C52.1446 25.0111 52.0113 19.0028 51.2117 16.0653C50.4066 13.1278 51.7448 6.45325 57.8863 7.78595C64.0278 9.11865 63.7613 14.9937 72.0407 16.604C80.3201 18.2088 79.787 25.0167 79.787 25.0167C79.787 25.0167 80.3201 31.8078 72.0407 33.4127C63.7613 35.0119 64.0279 40.8758 57.8863 42.2085ZM80.3256 31.1749C79.2817 34.7898 82.1358 38.7824 86.7004 40.0985C91.2593 41.4145 95.8016 39.5542 96.8455 35.9393C97.8895 32.3243 95.0353 28.3318 90.4707 27.0157C85.9118 25.6997 81.3695 27.56 80.3256 31.1749ZM81.9859 46.1566C83.4075 42.6749 80.9974 38.3992 76.5996 36.6056C72.2017 34.8119 67.4872 36.178 66.0713 39.6597C64.6553 43.1413 67.0598 47.4171 71.4576 49.2107C75.8555 51.0043 80.5643 49.6383 81.9859 46.1566ZM80.3256 18.8196C81.3696 22.4346 85.9118 24.2948 90.4707 22.9788C95.0297 21.6628 97.8839 17.6647 96.8399 14.0552C95.796 10.4458 91.2538 8.58005 86.6948 9.89606C82.1358 11.2122 79.2817 15.2047 80.3256 18.8196ZM66.0713 10.3403C67.4928 13.822 72.2073 15.188 76.5996 13.3944C80.992 11.6008 83.4075 7.32502 81.9859 3.84338C80.5643 0.361742 75.8499 -1.00426 71.4576 0.789371C67.0598 2.58291 64.6498 6.85865 66.0713 10.3403Z" fill="#008080" fill-opacity="0.8"/>
<path d="M108.886 42.2085C102.745 43.5467 101.412 36.8777 102.212 33.9402C103.011 31.0027 103.145 25.0111 103.145 25.0111C103.145 25.0111 103.011 19.0028 102.212 16.0653C101.407 13.1278 102.745 6.45325 108.886 7.78595C115.028 9.11865 114.761 14.9937 123.041 16.604C131.32 18.2088 130.787 25.0167 130.787 25.0167C130.787 25.0167 131.32 31.8078 123.041 33.4127C114.761 35.0119 115.028 40.8758 108.886 42.2085ZM131.326 31.1749C130.282 34.7898 133.136 38.7824 137.7 40.0985C142.259 41.4145 146.802 39.5542 147.846 35.9393C148.89 32.3243 146.035 28.3318 141.471 27.0157C136.912 25.6997 132.369 27.56 131.326 31.1749ZM132.986 46.1566C134.407 42.6749 131.997 38.3992 127.6 36.6056C123.202 34.8119 118.487 36.178 117.071 39.6597C115.655 43.1413 118.06 47.4171 122.458 49.2107C126.856 51.0043 131.564 49.6383 132.986 46.1566ZM131.326 18.8196C132.37 22.4346 136.912 24.2948 141.471 22.9788C146.03 21.6628 148.884 17.6647 147.84 14.0552C146.796 10.4458 142.254 8.58005 137.695 9.89606C133.136 11.2122 130.282 15.2047 131.326 18.8196ZM117.071 10.3403C118.493 13.822 123.207 15.188 127.6 13.3944C131.992 11.6008 134.407 7.32502 132.986 3.84338C131.564 0.361742 126.85 -1.00426 122.458 0.789371C118.06 2.58291 115.65 6.85865 117.071 10.3403Z" fill="#008080"/>
<path d="M108.886 42.2085C102.745 43.5467 101.412 36.8777 102.212 33.9402C103.011 31.0027 103.145 25.0111 103.145 25.0111C103.145 25.0111 103.011 19.0028 102.212 16.0653C101.407 13.1278 102.745 6.45325 108.886 7.78595C115.028 9.11865 114.761 14.9937 123.041 16.604C131.32 18.2088 130.787 25.0167 130.787 25.0167C130.787 25.0167 131.32 31.8078 123.041 33.4127C114.761 35.0119 115.028 40.8758 108.886 42.2085ZM131.326 31.1749C130.282 34.7898 133.136 38.7824 137.7 40.0985C142.259 41.4145 146.802 39.5542 147.846 35.9393C148.89 32.3243 146.035 28.3318 141.471 27.0157C136.912 25.6997 132.369 27.56 131.326 31.1749ZM132.986 46.1566C134.407 42.6749 131.997 38.3992 127.6 36.6056C123.202 34.8119 118.487 36.178 117.071 39.6597C115.655 43.1413 118.06 47.4171 122.458 49.2107C126.856 51.0043 131.564 49.6383 132.986 46.1566ZM131.326 18.8196C132.37 22.4346 136.912 24.2948 141.471 22.9788C146.03 21.6628 148.884 17.6647 147.84 14.0552C146.796 10.4458 142.254 8.58005 137.695 9.89606C133.136 11.2122 130.282 15.2047 131.326 18.8196ZM117.071 10.3403C118.493 13.822 123.207 15.188 127.6 13.3944C131.992 11.6008 134.407 7.32502 132.986 3.84338C131.564 0.361742 126.85 -1.00426 122.458 0.789371C118.06 2.58291 115.65 6.85865 117.071 10.3403Z" fill="#008080"/>
<path d="M6.88629 42.2085C0.744694 43.5467 -0.587912 36.8777 0.211725 33.9402C1.01136 31.0027 1.14456 25.0111 1.14456 25.0111C1.14456 25.0111 1.01127 19.0028 0.211725 16.0653C-0.593447 13.1278 0.744786 6.45325 6.88629 7.78595C13.0278 9.11865 12.7613 14.9937 21.0407 16.604C29.3201 18.2088 28.787 25.0167 28.787 25.0167C28.787 25.0167 29.3201 31.8078 21.0407 33.4127C12.7613 35.0119 13.0279 40.8758 6.88629 42.2085ZM29.3256 31.1749C28.2817 34.7898 31.1358 38.7824 35.7004 40.0985C40.2593 41.4145 44.8016 39.5542 45.8455 35.9393C46.8895 32.3243 44.0353 28.3318 39.4707 27.0157C34.9118 25.6997 30.3695 27.56 29.3256 31.1749ZM30.9859 46.1566C32.4075 42.6749 29.9974 38.3992 25.5996 36.6056C21.2017 34.8119 16.4872 36.178 15.0713 39.6597C13.6553 43.1413 16.0598 47.4171 20.4576 49.2107C24.8555 51.0043 29.5643 49.6383 30.9859 46.1566ZM29.3256 18.8196C30.3696 22.4346 34.9118 24.2948 39.4707 22.9788C44.0297 21.6628 46.8839 17.6647 45.8399 14.0552C44.796 10.4458 40.2538 8.58005 35.6948 9.89606C31.1358 11.2122 28.2817 15.2047 29.3256 18.8196ZM15.0713 10.3403C16.4928 13.822 21.2073 15.188 25.5996 13.3944C29.992 11.6008 32.4075 7.32502 30.9859 3.84338C29.5643 0.361742 24.8499 -1.00426 20.4576 0.789371C16.0598 2.58291 13.6498 6.85865 15.0713 10.3403Z" fill="#008080" fill-opacity="0.6"/>
</svg>
