<?xml version="1.0"?>
<svg xmlns="http://www.w3.org/2000/svg" xmlns:xlink="http://www.w3.org/1999/xlink" xmlns:svgjs="http://svgjs.com/svgjs" version="1.1" width="512" height="512" x="0" y="0" viewBox="0 0 512 512.01688" style="enable-background:new 0 0 512 512" xml:space="preserve" class=""><g><path xmlns="http://www.w3.org/2000/svg" d="m306.695312 201.609375c14.976563-10.5 28.503907-19.085937 40.753907-26.019531-25.691407-34.722656-74.710938-56.730469-128.011719-56.730469-53.347656 0-102.34375 21.980469-127.96875 56.652344 12.273438 6.929687 25.847656 15.515625 40.898438 26.019531 55.464843-24.820312 118.886718-24.792969 174.328124.078125zm0 0" fill="#ff614d" data-original="#000000" style="" class=""/><path xmlns="http://www.w3.org/2000/svg" d="m223.734375 391.648438 13.6875-14.628907c.207031-.636719-1.160156-2.160156-4.277344-2.160156h-27.414062c-3.113281 0-4.480469 1.519531-4.589844 1.949219l14.011719 14.84375c2.5625 1.847656 6.019531 1.847656 8.582031-.003906zm0 0" fill="#ff614d" data-original="#000000" style="" class=""/><path xmlns="http://www.w3.org/2000/svg" d="m215.570312 100.683594c1.292969-.023438 2.570313-.109375 3.867188-.109375 4.835938 0 9.625.222656 14.390625.546875-.316406-10.304688-1.710937-20.550782-4.167969-30.5625-3.855468-17.597656 2.925782-35.824219 17.347656-46.621094 14.996094-10.082031 35.761719-6.503906 58.464844 10.097656 4.078125 2.980469 9.800782 2.089844 12.777344-1.988281 2.980469-4.078125 2.089844-9.800781-1.988281-12.78125-39.449219-28.871094-66.753907-18.988281-79.53125-10.539063-20.871094 14.976563-30.65625 41.058594-24.785157 66.070313 2.078126 8.484375 3.289063 17.15625 3.625 25.886719zm0 0" fill="#ff614d" data-original="#000000" style="" class=""/><path xmlns="http://www.w3.org/2000/svg" d="m28.253906 509.214844c-.523437-2.078125-.796875-4.210938-.816406-6.355469v-18.285156c0-5.050781 4.09375-9.144531 9.140625-9.144531 5.050781 0 9.144531 4.09375 9.144531 9.144531v18.285156c0 5.050781 4.09375 9.144531 9.144532 9.144531 5.046874 0 9.140624-4.09375 9.140624-9.144531v-18.285156c0-5.050781 4.09375-9.144531 9.144532-9.144531 5.046875 0 9.140625 4.09375 9.140625 9.144531v18.285156c-.019531 2.144531-.292969 4.277344-.816407 6.355469 15.949219-3.6875 28.246094-11.332032 28.246094-24.640625 0-20.578125-25.3125-45.714844-54.855468-45.714844-29.546876 0-54.8593755 25.144531-54.8593755 45.714844 0 13.308593 12.2968755 20.953125 28.2460935 24.640625zm0 0" fill="#ff614d" data-original="#000000" style="" class=""/><path xmlns="http://www.w3.org/2000/svg" d="m73.152344 384.003906c0 5.046875-4.09375 9.140625-9.144532 9.140625-15.058593.265625-30.066406 1.867188-44.84375 4.789063 1.210938 9.710937 3.835938 19.195312 7.792969 28.152344 8.859375-3.621094 18.335938-5.496094 27.910157-5.511719 41.195312 0 73.140624 34.402343 73.140624 64 .03125 5.238281-1.042968 10.421875-3.148437 15.214843 30.816406 8.394532 62.640625 12.503907 94.578125 12.214844 31.9375.289063 63.761719-3.820312 94.578125-12.214844-2.109375-4.792968-3.183594-9.976562-3.148437-15.214843 0-29.597657 31.945312-64 73.140624-64 9.574219.015625 19.050782 1.890625 27.910157 5.511719 3.957031-8.957032 6.582031-18.441407 7.792969-28.152344-14.777344-2.921875-29.785157-4.523438-44.84375-4.789063-5.050782 0-9.144532-4.09375-9.144532-9.140625 0-5.050781 4.09375-9.144531 9.144532-9.144531 15.277343.214844 30.511718 1.75 45.53125 4.582031-.484376-12.390625-2.601563-24.664062-6.300782-36.503906-18.511718 3.660156-36.167968 10.773438-52.050781 20.96875-4.042969 3.023438-9.773437 2.195312-12.796875-1.847656-3.027344-4.042969-2.199219-9.773438 1.84375-12.800782 17.144531-11.40625 36.308594-19.433593 56.464844-23.644531-3.695313-8.515625-8.015625-16.75-12.925782-24.628906-1.4375-2.296875-1.78125-5.113281-.9375-7.691406 16.832032-51.449219 22.722657-104.078125 13.125-117.320313-.886718-1.484375-2.527343-2.351562-4.25-2.257812-15.992187 0-48.652343 16.714844-89.601562 45.855468-2.699219 1.925782-6.230469 2.234376-9.222656.808594-53.253906-25.5-115.1875-25.53125-168.464844-.082031-2.980469 1.410156-6.492188 1.101563-9.179688-.808594-16.492187-11.949219-33.742187-22.8125-51.644531-32.523437-.3125-.113282-.617187-.242188-.914062-.390625-.078125-.046875-.117188-.128907-.195313-.179688-11.164062-6.898437-23.722656-11.230469-36.769531-12.679687-1.742187-.097656-3.398437.78125-4.296875 2.277344-9.550781 13.175781-3.683594 65.628906 13.074219 116.949218.847656 2.574219.503906 5.394532-.9375 7.691406-4.988281 7.988282-9.375 16.339844-13.121094 24.984376 20.164063 4.207031 39.335937 12.234374 56.484375 23.640624 3.882812 3.074219 4.613281 8.679688 1.648438 12.648438-2.964844 3.964844-8.550782 4.847656-12.597657 1.992188-15.882812-10.191407-33.539062-17.300782-52.050781-20.960938-3.695312 11.835938-5.8125 24.113281-6.296875 36.503906 15.015625-2.835937 30.246094-4.367187 45.523437-4.582031 2.425782 0 4.75.964844 6.464844 2.679687 1.714844 1.714844 2.679688 4.039063 2.679688 6.464844zm183.0625-47.617187c3.121094-12.363281 11.152344-22.917969 22.238281-29.214844 14.234375-7.65625 32.402344-7.261719 54.027344 1.175781 4.707031 1.839844 7.027343 7.144532 5.1875 11.847656-1.839844 4.703126-7.144531 7.027344-11.847657 5.1875-16.382812-6.402343-29.402343-7.117187-38.695312-2.105468-6.398438 3.714844-11.078125 9.792968-13.035156 16.925781-.667969 3.207031-3.003906 5.808594-6.117188 6.824219-3.113281 1.015625-6.53125.285156-8.960937-1.910156-2.429688-2.199219-3.496094-5.527344-2.796875-8.726563zm-64.207032 120.757812c10.09375-.011719 18.273438-8.191406 18.285157-18.285156v-29.144531c-3.214844-1.1875-6.121094-3.089844-8.488281-5.566406l-13.707032-14.628907c-5.175781-5.308593-6.640625-13.214843-3.714844-20.03125 3.917969-8.164062 12.296876-13.234375 21.347657-12.914062h27.410156c9.050781-.320313 17.433594 4.75 21.351563 12.914062 2.929687 6.816407 1.457031 14.722657-3.722657 20.03125l-13.691406 14.628907c-2.375 2.476562-5.28125 4.378906-8.5 5.566406v29.144531c0 10.097656 8.1875 18.285156 18.285156 18.285156 10.097657 0 18.285157-8.1875 18.285157-18.285156v-9.144531c0-5.046875 4.09375-9.140625 9.144531-9.140625 5.046875 0 9.140625 4.09375 9.140625 9.140625v9.144531c.066406 15.25-9.378906 28.925781-23.660156 34.265625-14.285157 5.339844-30.382813 1.21875-40.339844-10.332031-9.957032 11.546875-26.054688 15.667969-40.335938 10.328125s-23.722656-19.015625-23.660156-34.261719v-9.144531c0-5.046875 4.09375-9.140625 9.140625-9.140625 5.050781 0 9.144531 4.09375 9.144531 9.140625v9.144531c.011719 10.09375 8.191406 18.273437 18.285156 18.285156zm-94.757812-148.804687c21.632812-8.429688 39.804688-8.824219 54.027344-1.171875 11.085937 6.296875 19.121094 16.851562 22.238281 29.214843.964844 4.886719-2.160156 9.644532-7.027344 10.703126-4.871093 1.054687-9.6875-1.976563-10.835937-6.824219-1.988282-7.214844-6.738282-13.355469-13.226563-17.089844-9.292969-4.910156-22.238281-4.15625-38.515625 2.207031-4.703125 1.839844-10.007812-.484375-11.847656-5.1875-1.839844-4.707031.480469-10.011718 5.1875-11.851562zm0 0" fill="#ff614d" data-original="#000000" style="" class=""/><path xmlns="http://www.w3.org/2000/svg" d="m329.152344 484.574219c0 13.308593 12.296875 20.953125 28.246094 24.640625-.523438-2.078125-.796876-4.210938-.820313-6.355469v-18.285156c0-5.050781 4.09375-9.144531 9.144531-9.144531 5.050782 0 9.144532 4.09375 9.144532 9.144531v18.285156c0 5.050781 4.089843 9.144531 9.140624 9.144531 5.050782 0 9.144532-4.09375 9.144532-9.144531v-18.285156c0-5.050781 4.09375-9.144531 9.140625-9.144531 5.050781 0 9.144531 4.09375 9.144531 9.144531v18.285156c-.023438 2.144531-.296875 4.277344-.816406 6.355469 15.949218-3.6875 28.246094-11.332032 28.246094-24.640625 0-20.578125-25.316407-45.714844-54.859376-45.714844-29.542968 0-54.855468 25.144531-54.855468 45.714844zm0 0" fill="#ff614d" data-original="#000000" style="" class=""/></g></svg>
