<?xml version="1.0"?>
<svg xmlns="http://www.w3.org/2000/svg" xmlns:xlink="http://www.w3.org/1999/xlink" xmlns:svgjs="http://svgjs.com/svgjs" version="1.1" width="512" height="512" x="0" y="0" viewBox="0 0 60 60" style="enable-background:new 0 0 512 512" xml:space="preserve" class=""><g><g xmlns="http://www.w3.org/2000/svg" id="Page-1" fill="none" fill-rule="evenodd"><g id="036---Vaccinations" fill="rgb(0,0,0)" fill-rule="nonzero" transform="translate(-1)"><path id="Shape" d="m2 60c.26519481-.0000566.51950727-.1054506.707-.293l7.21-7.207c1.1728645 1.1678451 3.0691355 1.1678451 4.242 0l2.655-2.655c4.1494854 1.8233926 8.9929323.9097595 12.193-2.3l2.382-2.383c.03.074.051.149.084.222.5369558 1.4483818 1.8528058 2.4637988 3.39 2.616.3430785.0009337.6823698-.0716985.995-.213.8291271-.4119175 1.3935817-1.2153245 1.5-2.135.1308435-.9373571-.0151419-1.8925187-.42-2.748-.3230745-.7228319-.8131874-1.3586077-1.43-1.855l1.707-1.708c.2237296.9004806.6708369 1.7300366 1.3 2.412.692342.7709636 1.6720928 1.2221266 2.708 1.247.1263095-.0003515.2525026-.0076961.378-.022 1.1550402-.1683629 2.1624927-.8728751 2.717-1.9 1.1877497-2.2131671.8683159-4.9323472-.8-6.81-.1997515-.2080483-.4194752-.3959522-.656-.561l5.238-5.252c.755851.7680809 1.8655872 1.0717595 2.9072062.7955552s1.8550755-1.0898526 2.1310343-2.1315366c.2759587-1.0416841-.0279815-2.1513487-.7962405-2.9070186l-4.95-4.949 4.243-4.243 2.828 2.828c.5626237.562719 1.3257625.8788593 2.1215.8788593s1.5588763-.3161403 2.1215-.8788593l1.414-1.414c.562719-.5626237.8788593-1.3257625.8788593-2.1215s-.3161403-1.5588763-.8788593-2.1215l-11.312-11.312c-1.1875974-1.13257271-3.0554026-1.13257271-4.243 0l-1.416 1.414c-1.168509 1.17298051-1.168509 3.07001949 0 4.243l2.829 2.828-4.242 4.242-4.95-4.95c-1.1719482-1.17139595-3.071604-1.17094824-4.243.001s-1.1709482 3.071604.001 4.243l-2.823 2.823h-.006v.006l-2.819 2.819-2.829 2.832-.008.005-.006.008-8.471 8.471-.009.006-.005.009-2.114 2.113c-3.2103657 3.2005681-4.1240227 8.0449367-2.3 12.195l-2.654 2.653c-.56271905.5626237-.87885933 1.3257625-.87885933 2.1215s.31614028 1.5588763.87885933 2.1215l-7.21 7.21c-.28629675.2863801-.37162138.7171518-.21610713 1.0910431.15551424.3738913.52116504.6170868.92610713.6159569zm33.382-14.669c-.0120489.2546869-.141744.4893205-.351.635-.376.168-1.233-.3-1.738-1.407-.239728-.496977-.3326996-1.0520313-.268-1.6.0122835-.2545942.1424021-.4889557.352-.634.0528442-.0233723.1102414-.0346468.168-.033.1937742.0122428.3806645.0764971.541.186.4546819.3113315.8109885.7460464 1.027 1.253.2400703.4968769.3333896 1.0519358.269 1.6zm7.207-5.264c-.2116366.5046131-.6786303.8561431-1.2220962.9199341-.5434658.0637909-1.0791686-.1700445-1.4019038-.6119341-1.0568706-1.2324142-1.2628037-2.9818575-.521-4.426.2438291-.4785649.6946754-.817991 1.222-.92.0497812-.005928.0998671-.0089332.15-.009.483464.0316975.9342165.2552736 1.252.621 1.0568706 1.2324142 1.2628037 2.9818575.521 4.426zm1.975-36.359 1.416-1.416c.3904999-.39038194 1.0235001-.39038194 1.414 0l11.313 11.314c.187777.1875683.2932867.4420908.2932867.7075s-.1055097.5199317-.2932867.7075l-1.414 1.414c-.3952754.3786748-1.0187246.3786748-1.414 0l-5.657-5.657-2.122-2.121-3.535-3.535c-.3906582-.39022371-.3911059-1.02322412-.001-1.414zm2.829 7.07 2.829 2.829-4.242 4.243-2.829-2.829zm-13.435-.707c.1875683-.18777704.4420908-.29328666.7075-.29328666s.5199317.10550962.7075.29328666l5.655 5.656 2.122 2.121 7.778 7.779c.3903819.3904999.3903819 1.0235001 0 1.414-.3955536.377016-1.0174464.377016-1.413 0l-.707-.707-14.14-14.14-.7-.7c-.1915651-.1865417-.3004454-.4420317-.3023244-.7094106-.0018789-.2673789.1033999-.5243738.2923244-.7135894zm12.728 16.97-6 6c-.086 0-.172-.013-.258 0-.2178466.0316686-.4319345.0852744-.639.16-2.8988427.1742406-5.7817606-.5409938-8.263-2.05-3.2095951-1.9923218-6.7896374-3.3135765-10.524-3.884l3.761-3.761 2.121 2.12c.2524081.252944.6205869.3520158.9658469.259896.3452601-.0921199.6151482-.3614361.708-.7065.0928519-.3450639-.0054388-.713452-.2578469-.966396l-2.121-2.12 1.421-1.414 2.12 2.12c.3923789.3789722 1.0160848.3735524 1.4018186-.0121814s.3911536-1.0094397.0121814-1.4018186l-2.12-2.121 1.414-1.414 2.12 2.121c.3923789.3789722 1.0160848.3735524 1.4018186-.0121814s.3911536-1.0094397.0121814-1.4018186l-2.12-2.121 2.121-2.121zm-33.071 7.941 1.958 1.959c.2510745.2599566.6228779.3642126.9725073.2726972.3496295-.0915155.6226744-.3645604.7141899-.7141899.0915154-.3496294-.0127406-.7214328-.2726972-.9725073l-2.12-2.12 1.415-1.414 2.12 2.12c.2495645.2661344.6242617.3752326.9776845.2846663s.6294737-.366422.72029-.7197806c.0908164-.3533587-.0180167-.728133-.2839745-.9778857l-2.116-2.122 1.525-1.525c3.9909157.3842205 7.8397234 1.6824403 11.248 3.794 2.1605475 1.3365284 4.6144392 2.1260026 7.149 2.3-.2434318.4625355-.4169831.9585891-.515 1.472l-3.692 3.692c-.2962355.0082385-.5882923.0720093-.861.188-.8290037.4120613-1.3934046 1.2153919-1.5 2.135v.039l-3.457 3.457c-3.2404842 3.2265516-8.3854277 3.5101826-11.9609447.6593842s-4.4448643-7.9296886-2.0210553-11.8073842zm-3.7 13.273 2.255-2.255c.7600067 1.1103919 1.7196081 2.0699933 2.83 2.83l-2.254 2.253c-.3966954.3751231-1.0173046.3751231-1.414 0l-1.415-1.415c-.38971594-.3903851-.38971594-1.0226149 0-1.413z" fill="#ff614d" data-original="#000000" style="" class=""/><path id="Shape" d="m36 54c0 4.429 3.232 6 6 6 .8541864.0182013 1.6981193-.1887295 2.447-.6.9683356-.5267447 2.1376644-.5267447 3.106 0 .7488807.4112705 1.5928136.6182013 2.447.6 2.768 0 6-1.571 6-6 0-4.58-5.421-10-10-10s-10 5.42-10 10zm18 0c.1036386 1.0893494-.284368 2.1681029-1.0581326 2.9418674-.7737645.7737646-1.852518 1.1617712-2.9418674 1.0581326-.5449746.0152965-1.0832239-.1233382-1.553-.4-1.5316082-.8066845-3.3623918-.8066845-4.894 0-.4697761.2766618-1.0080254.4152965-1.553.4-1.0893494.1036386-2.1681029-.284368-2.9418674-1.0581326-.7737646-.7737645-1.1617712-1.852518-1.0581326-2.9418674 0-3.439 4.561-8 8-8s8 4.561 8 8z" fill="#ff614d" data-original="#000000" style="" class=""/><path id="Shape" d="m54.318 34.924c-.5290212-1.0494371-1.5494217-1.7633153-2.7166171-1.9005613-1.1671954-.1372461-2.3253584.3204631-3.0833829 1.2185613-1.6688763 1.8774014-1.9883531 4.5969476-.8 6.81.5536523 1.0278863 1.5615381 1.7327015 2.717 1.9.1251193.0148023.2510083.0221486.377.022 1.0352796-.0242597 2.0149701-.4734202 2.709-1.242 1.6683159-1.8776528 1.9877497-4.5968329.8-6.81zm-1.318 3.298c-.0790759.7917725-.4063208 1.538311-.935 2.133-.3223793.4424879-.858287.676786-1.4020246.6129631-.5437377-.0638228-1.0108236-.4158503-1.2219754-.9209631-.7404013-1.4443954-.5345652-3.1930141.521-4.426.31864-.3662608.7705321-.5898664 1.255-.621.0498004.0000691.0995534.0030743.149.009.5276972.1017264.9789631.4411905 1.223.92.3753709.7018697.5192263 1.5044498.411 2.293z" fill="#ff614d" data-original="#000000" style="" class=""/><path id="Shape" d="m59.451 40.5c-.8558859-.3521844-1.8317813-.2479735-2.594.277-1.5936462 1.0802955-2.4479061 2.9622162-2.212 4.873.1062411.919743.6707493 1.7232263 1.5 2.135.3123231.1411617.6512585.2137907.994.213 1.5369502-.1520284 2.8527377-1.167009 3.39-2.615.4055938-.8552584.5519456-1.8105426.421-2.748-.106567-.919331-.6705059-1.7225396-1.499-2.135zm-.744 4.056c-.506 1.111-1.371 1.575-1.737 1.407-.2098692-.1452547-.3400223-.380048-.352-.635-.0646996-.5479687.028272-1.103023.268-1.6.2160115-.5069536.5723181-.9416685 1.027-1.253.1603355-.1095029.3472258-.1737572.541-.186.0580315-.0010564.1156287.0101904.169.033.2089855.1454683.3386465.3796708.351.634.0655917.5488597-.027046 1.1050329-.267 1.603z" fill="#ff614d" data-original="#000000" style="" class=""/></g></g></g></svg>
