<svg width="40" height="32" viewBox="0 0 40 32" fill="none" xmlns="http://www.w3.org/2000/svg">
<path d="M38 5.83781H30.76C30.2476 5.03179 29.6438 4.28416 28.96 3.60893C26.5843 1.29826 23.361 0 20 0C16.639 0 13.4157 1.29826 11.04 3.60893C10.3562 4.28416 9.75239 5.03179 9.24 5.83781H2C0.89543 5.83781 0 6.70807 0 7.78159V16.8526C0 17.9261 0.89543 18.7964 2 18.7964H9.24C9.75239 19.6024 10.3562 20.35 11.04 21.0253C15.1721 25.0326 21.5871 25.7765 26.5733 22.8265L34.88 30.8932C35.7371 31.7252 37.0249 31.9746 38.1446 31.5254C39.2643 31.0762 39.9962 30.0166 40 28.8393C40.0015 28.0658 39.6846 27.3239 39.12 26.7789L30.9067 18.7964H38C39.1046 18.7964 40 17.9261 40 16.8526V7.78159C40 6.70807 39.1046 5.83781 38 5.83781ZM2 17.5005C1.63181 17.5005 1.33333 17.2104 1.33333 16.8526V7.78159C1.33333 7.42375 1.63181 7.13367 2 7.13367H8.52667C6.95661 10.4208 6.95661 14.2134 8.52667 17.5005H2ZM12 20.0923C8.75056 16.945 7.77373 12.2044 9.52562 8.08377C11.2775 3.96315 15.4125 1.27535 20 1.27535C24.5875 1.27535 28.7225 3.96315 30.4744 8.08377C32.2263 12.2044 31.2494 16.945 28 20.0923C23.5772 24.3758 16.4227 24.3758 12 20.0923ZM28.9733 21.0123C29.361 20.6238 29.7239 20.2127 30.06 19.7812L31.3933 21.0771L29.04 23.3643L27.7067 22.0684C28.1457 21.7456 28.5642 21.3972 28.96 21.0253L28.9733 21.0123ZM37.04 26.5715L34.6667 28.8782L29.94 24.2844L32.2933 21.9972L37.04 26.5715ZM38.1733 29.9667C37.5193 30.5822 36.4807 30.5822 35.8267 29.9667L35.6267 29.7788L38 27.5046L38.2 27.6989C38.5131 28.0017 38.6891 28.4133 38.6891 28.8425C38.6891 29.2718 38.5131 29.6833 38.2 29.9861L38.1733 29.9667ZM38.6667 16.8526C38.6667 17.2104 38.3682 17.5005 38 17.5005H31.4733C33.0434 14.2134 33.0434 10.4208 31.4733 7.13367H38C38.3682 7.13367 38.6667 7.42375 38.6667 7.78159V16.8526Z" fill="#FF614D"/>
<path d="M6.00004 14.2609H3.33337C2.96518 14.2609 2.6667 14.551 2.6667 14.9089C2.6667 15.2667 2.96518 15.5568 3.33337 15.5568H6.00004C6.36823 15.5568 6.6667 15.2667 6.6667 14.9089C6.6667 14.551 6.36823 14.2609 6.00004 14.2609Z" fill="#FF614D"/>
<path d="M3.12004 11.3256L3.61338 11.4941L3.29338 11.9477C3.15208 12.1456 3.13546 12.4034 3.25022 12.6169C3.36497 12.8305 3.59216 12.9645 3.84004 12.9649C4.05819 12.9646 4.26236 12.8605 4.38671 12.6863L4.66671 12.317L4.94671 12.7122C5.15687 13.0052 5.57135 13.0777 5.87338 12.8742C6.17484 12.67 6.24939 12.2671 6.04004 11.9736L5.72004 11.52L6.21338 11.3516C6.45404 11.2896 6.63916 11.1025 6.6934 10.8664C6.74765 10.6302 6.66199 10.3844 6.47128 10.2289C6.28057 10.0733 6.01658 10.034 5.78671 10.127L5.33338 10.2501V9.72526C5.33338 9.36742 5.0349 9.07733 4.66671 9.07733C4.29852 9.07733 4.00004 9.36742 4.00004 9.72526V10.2501L3.54671 10.1011C3.31684 10.0081 3.05285 10.0474 2.86214 10.203C2.67143 10.3585 2.58577 10.6043 2.64002 10.8405C2.69426 11.0766 2.87938 11.2637 3.12004 11.3256Z" fill="#FF614D"/>
<path d="M33.7867 11.3256L34.2801 11.4941L33.9601 11.9477C33.8188 12.1456 33.8022 12.4034 33.9169 12.6169C34.0317 12.8305 34.2589 12.9645 34.5067 12.9649C34.7249 12.9646 34.9291 12.8605 35.0534 12.6863L35.3334 12.317L35.6134 12.7122C35.8236 13.0052 36.238 13.0777 36.5401 12.8742C36.8415 12.67 36.9161 12.2671 36.7067 11.9736L36.3867 11.52L36.8801 11.3516C37.1207 11.2896 37.3058 11.1025 37.3601 10.8664C37.4143 10.6302 37.3287 10.3844 37.138 10.2289C36.9472 10.0733 36.6833 10.034 36.4534 10.127L36.0001 10.276V9.72526C36.0001 9.36742 35.7016 9.07733 35.3334 9.07733C34.9652 9.07733 34.6667 9.36742 34.6667 9.72526V10.2501L34.2134 10.1011C33.9835 10.0081 33.7196 10.0474 33.5288 10.203C33.3381 10.3585 33.2525 10.6043 33.3067 10.8405C33.361 11.0766 33.5461 11.2637 33.7867 11.3256Z" fill="#FF614D"/>
<path d="M17.3334 14.909H14.6667C14.2985 14.909 14 15.199 14 15.5569C14 15.9147 14.2985 16.2048 14.6667 16.2048H17.3334C17.7016 16.2048 18.0001 15.9147 18.0001 15.5569C18.0001 15.199 17.7016 14.909 17.3334 14.909Z" fill="#FF614D"/>
<path d="M25.3334 14.909H22.6667C22.2986 14.909 22.0001 15.199 22.0001 15.5569C22.0001 15.9147 22.2986 16.2048 22.6667 16.2048H25.3334C25.7016 16.2048 26.0001 15.9147 26.0001 15.5569C26.0001 15.199 25.7016 14.909 25.3334 14.909Z" fill="#FF614D"/>
<path d="M17.7867 9.94572L16.6667 10.3215V9.0775C16.6667 8.71965 16.3682 8.42957 16 8.42957C15.6319 8.42957 15.3334 8.71965 15.3334 9.0775V10.3215L14.2134 9.94572C13.9835 9.85279 13.7195 9.89209 13.5288 10.0476C13.3381 10.2031 13.2524 10.449 13.3067 10.6851C13.3609 10.9213 13.546 11.1084 13.7867 11.1703L14.9467 11.5591L14.2067 12.5958C13.9987 12.891 14.0763 13.2942 14.38 13.4964C14.4915 13.572 14.6241 13.6127 14.76 13.613C14.9782 13.6127 15.1824 13.5086 15.3067 13.3344L15.9734 12.3625L16.64 13.3344C16.7644 13.5086 16.9686 13.6127 17.1867 13.613C17.3227 13.6127 17.4552 13.572 17.5667 13.4964C17.8704 13.2942 17.948 12.891 17.74 12.5958L17 11.5591L18.16 11.1703C18.4007 11.1084 18.5858 10.9213 18.6401 10.6851C18.6943 10.449 18.6087 10.2031 18.4179 10.0476C18.2272 9.89209 17.9632 9.85279 17.7334 9.94572H17.7867Z" fill="#FF614D"/>
<path d="M26.6667 10.3734C26.5468 10.0354 26.1679 9.8556 25.82 9.97164L24.6667 10.3215V9.0775C24.6667 8.71965 24.3682 8.42957 24 8.42957C23.6318 8.42957 23.3334 8.71965 23.3334 9.0775V10.3215L22.2133 9.94572C21.9835 9.85279 21.7195 9.89209 21.5288 10.0476C21.3381 10.2031 21.2524 10.449 21.3067 10.6851C21.3609 10.9213 21.546 11.1084 21.7867 11.1703L22.9467 11.5591L22.2067 12.5958C21.9987 12.891 22.0763 13.2942 22.38 13.4964C22.4915 13.572 22.6241 13.6127 22.76 13.613C22.9782 13.6127 23.1823 13.5086 23.3067 13.3344L23.9733 12.3625L24.64 13.3344C24.7644 13.5086 24.9685 13.6127 25.1867 13.613C25.3226 13.6127 25.4552 13.572 25.5667 13.4964C25.8704 13.2942 25.948 12.891 25.74 12.5958L25 11.5591L26.16 11.1703C26.3381 11.1335 26.493 11.0276 26.5886 10.8771C26.6843 10.7266 26.7125 10.5446 26.6667 10.3734Z" fill="#FF614D"/>
<path d="M36.6667 14.2609H34C33.6318 14.2609 33.3334 14.551 33.3334 14.9089C33.3334 15.2667 33.6318 15.5568 34 15.5568H36.6667C37.0349 15.5568 37.3333 15.2667 37.3333 14.9089C37.3333 14.551 37.0349 14.2609 36.6667 14.2609Z" fill="#FF614D"/>
<path d="M27.0734 5.44263C23.1675 1.64894 16.837 1.65025 12.9328 5.44556C9.02852 9.24088 9.02852 15.3934 12.9328 19.1887C16.837 22.9841 23.1675 22.9854 27.0734 19.1917C28.9617 17.3748 30.0241 14.8996 30.0241 12.3172C30.0241 9.73472 28.9617 7.25949 27.0734 5.44263ZM26.1267 18.2716C23.6484 20.6815 19.9204 21.403 16.6813 20.0995C13.4423 18.796 11.3302 15.7244 11.3302 12.3172C11.3302 8.90994 13.4423 5.8383 16.6813 4.53483C19.9204 3.23135 23.6484 3.9528 26.1267 6.36269C27.7693 7.93275 28.6943 10.0781 28.6943 12.3172C28.6943 14.5562 27.7693 16.7016 26.1267 18.2716Z" fill="#FF614D"/>
</svg>
