<?xml version="1.0"?>
<svg xmlns="http://www.w3.org/2000/svg" xmlns:xlink="http://www.w3.org/1999/xlink" xmlns:svgjs="http://svgjs.com/svgjs" version="1.1" width="512" height="512" x="0" y="0" viewBox="0 0 511.999 511.999" style="enable-background:new 0 0 512 512" xml:space="preserve" class=""><g>
<g xmlns="http://www.w3.org/2000/svg">
	<path style="" d="M406.906,413.073c-6.28,47.999-56.649,77.478-103.257,64.428c-13.87-3.88-30.299-6.13-47.899-6.13   c-17.31,0-33.469,2.17-47.189,5.93c-49.677,13.622-103.847-20.325-103.847-74.858c0-22.389,9.73-42.499,25.199-56.349   c0,0,32.369-28.169,56.169-82.798c11.37-27.359,38.349-46.599,69.818-46.599c31.479,0,58.458,19.23,69.828,46.589   c19.049,43.719,43.569,70.478,52.609,79.438C398.977,358.761,410.61,384.568,406.906,413.073z" fill="#ff614d" data-original="#787880" class=""/>
	<path style="" d="M108.764,214.588c17.17,33.239,11.12,70.508-13.52,83.238c-24.639,12.73-58.539-3.9-75.718-37.139   c-17.17-33.239-11.12-70.508,13.52-83.238C57.685,164.709,91.584,181.339,108.764,214.588z" fill="#ff614d" data-original="#787880" class=""/>
	<path style="" d="M344.088,31.813c26.149,3.09,44.349,38.689,39.729,77.748c-4.3,36.261-29.395,69.843-56.789,66.308   c-26.149-3.08-44.339-38.689-39.719-77.748C291.517,62.56,316.279,28.224,344.088,31.813z" fill="#ff614d" data-original="#787880" class=""/>
	<path style="" d="M224.401,97.921c2.38,20.039-1.18,40.099-9.74,55.059c-7.398,12.922-19.03,22.929-33.709,22.929   c-24.909,0-48.709-29.859-53.039-66.538c-2.37-20.019,1.18-40.099,9.74-55.059c7.311-12.771,18.867-22.909,33.699-22.909   C196.262,31.403,220.071,61.242,224.401,97.921z" fill="#ff614d" data-original="#787880" class=""/>
	<path style="" d="M478.455,177.479c24.639,12.74,30.689,50.009,13.52,83.248   c-17.18,33.239-51.079,49.869-75.718,37.139c-24.639-12.73-30.689-49.999-13.52-83.238   C419.916,181.379,453.815,164.749,478.455,177.479z" fill="#ff614d" data-original="#787880" class=""/>
</g>
<g xmlns="http://www.w3.org/2000/svg">
	<path style="" d="M295.999,301.376c5.52,0,10-4.48,10-10c0-5.52-4.48-10-10-10c-5.52,0-10,4.48-10,10   C285.999,296.896,290.479,301.376,295.999,301.376z" fill="#ff614d" data-original="#020202" class=""/>
	<path style="" d="M177.132,259.377c-22.5,51.606-53.238,78.916-53.533,79.174c-0.036,0.031-0.071,0.063-0.106,0.094   c-18.131,16.233-28.528,39.487-28.528,63.799c0,29.721,14.153,55.568,38.705,71.945c22.876,15.262,51.229,19.838,77.784,12.557   c13.308-3.646,28.711-5.574,44.547-5.574c16.103,0,31.734,1.992,45.203,5.76c25.775,7.215,54.066,3.259,77.421-12.172   c24.834-16.409,39.232-42.5,39.232-72.516c0-26.399-11.886-50.865-32.637-67.226c-9.374-9.369-32.107-34.727-50.041-75.851   c-13.336-31.998-44.347-52.669-79.028-52.669C221.477,206.698,190.471,227.373,177.132,259.377z M316.745,267.125   c0.021,0.052,0.044,0.104,0.066,0.156c19.586,44.95,44.804,72.7,54.736,82.546c0.286,0.282,0.588,0.548,0.904,0.794   c16.146,12.545,25.405,31.434,25.405,51.823c0,23.266-11.132,43.193-30.258,55.83c-18.023,11.908-40.258,15.406-61.005,9.599   c-15.201-4.253-32.695-6.5-50.594-6.5c-17.596,0-34.827,2.174-49.834,6.286c-20.966,5.749-43.344,2.138-61.398-9.906   c-18.85-12.575-29.804-32.234-29.804-55.309c0-18.614,7.956-36.421,21.829-48.863c2.134-1.871,34.586-30.925,58.707-86.29   c0.022-0.052,0.045-0.104,0.066-0.156c10.208-24.564,33.988-40.436,60.584-40.436C282.755,226.698,306.539,242.566,316.745,267.125   z" fill="#ff614d" data-original="#020202" class=""/>
	<path style="" d="M306.48,332.101c15.217,23.363,29.645,38.923,36.893,46.119c3.918,3.89,10.25,3.869,14.143-0.051   c3.891-3.919,3.868-10.251-0.051-14.143c-6.684-6.636-20.017-21.025-34.225-42.84c-3.014-4.627-9.208-5.938-13.837-2.923   C304.774,321.279,303.466,327.474,306.48,332.101z" fill="#ff614d" data-original="#020202" class=""/>
	<path style="" d="M166.697,21.683c-14.966,1.771-28.272,11.595-37.473,27.662   c-9.603,16.782-13.609,39.089-10.991,61.198c8.291,70.245,73.684,102.728,105.357,47.401c9.609-16.795,13.615-39.102,10.991-61.195   C229.505,53.736,199.84,17.703,166.697,21.683z M206.234,148.011c-23.047,40.264-62.693,6.318-68.139-39.815   c-2.125-17.947,0.97-35.776,8.488-48.915c5.474-9.563,14.013-17.879,25.02-17.879c19.682,0,39.427,26.419,43.119,57.699   C216.851,117.034,213.757,134.861,206.234,148.011z" fill="#ff614d" data-original="#020202" class=""/>
	<path style="" d="M78.357,169.795c-17.219-8.446-34.853-8.882-49.653-1.229c-14.8,7.647-24.642,22.28-27.716,41.207   c-2.895,17.824,0.623,37.534,9.905,55.505c9.287,17.968,23.329,32.242,39.542,40.194c16.09,7.892,33.916,9.367,49.65,1.238   c14.802-7.647,24.645-22.282,27.718-41.21c2.895-17.823-0.623-37.534-9.905-55.503C108.612,192.025,94.569,177.747,78.357,169.795z    M108.062,262.295c-2.032,12.518-8.126,21.98-17.157,26.646c-9.03,4.668-20.274,4.161-31.663-1.425   c-12.39-6.077-23.25-17.237-30.581-31.42c-7.327-14.185-10.145-29.496-7.933-43.117c2.033-12.518,8.127-21.979,17.158-26.645   c0.001-0.001,0.002-0.001,0.003-0.002c9.986-5.163,21.552-3.539,31.66,1.419c12.389,6.077,23.249,17.238,30.58,31.426   C107.456,233.362,110.274,248.675,108.062,262.295z" fill="#ff614d" data-original="#020202" class=""/>
	<path style="" d="M340.618,21.593c-30.32,0-57.99,33.099-62.989,75.353c-5.332,45.096,17.416,89.143,53.37,89.143   c30.315,0,57.988-33.098,62.999-75.353C399.323,65.722,376.643,21.593,340.618,21.593z M374.137,108.383   c-3.843,32.404-25.321,60.197-45.577,57.569c-0.037-0.004-0.074-0.009-0.111-0.014c-9.093-1.07-17.718-8.36-23.662-19.999   c-6.612-12.943-9.271-29.943-7.297-46.643c3.702-31.278,23.452-57.704,43.129-57.704c0.926,0,1.724,0.045,2.439,0.138   c10.663,1.185,18.917,10.504,23.779,20.019C373.451,74.69,376.111,91.688,374.137,108.383z" fill="#ff614d" data-original="#020202" class=""/>
	<path style="" d="M384.198,265.541c6.399,39.407,41.956,57.344,77.368,39.972   c33.539-16.451,55.437-58.816,49.447-95.7c-6.324-38.946-41.53-57.564-77.369-39.978   C400.115,186.283,378.207,228.653,384.198,265.541z M442.453,187.789c23.53-11.543,44.613-0.675,48.82,25.229   c4.564,28.104-12.792,61.921-38.514,74.538c-11.388,5.585-22.632,6.09-31.663,1.425v0.001   c-9.031-4.667-15.125-14.131-17.157-26.647C399.367,234.179,416.776,200.387,442.453,187.789z" fill="#ff614d" data-original="#020202" class=""/>
</g>
<g xmlns="http://www.w3.org/2000/svg">
</g>
<g xmlns="http://www.w3.org/2000/svg">
</g>
<g xmlns="http://www.w3.org/2000/svg">
</g>
<g xmlns="http://www.w3.org/2000/svg">
</g>
<g xmlns="http://www.w3.org/2000/svg">
</g>
<g xmlns="http://www.w3.org/2000/svg">
</g>
<g xmlns="http://www.w3.org/2000/svg">
</g>
<g xmlns="http://www.w3.org/2000/svg">
</g>
<g xmlns="http://www.w3.org/2000/svg">
</g>
<g xmlns="http://www.w3.org/2000/svg">
</g>
<g xmlns="http://www.w3.org/2000/svg">
</g>
<g xmlns="http://www.w3.org/2000/svg">
</g>
<g xmlns="http://www.w3.org/2000/svg">
</g>
<g xmlns="http://www.w3.org/2000/svg">
</g>
<g xmlns="http://www.w3.org/2000/svg">
</g>
</g></svg>
