<?xml version="1.0"?>
<svg xmlns="http://www.w3.org/2000/svg" xmlns:xlink="http://www.w3.org/1999/xlink" xmlns:svgjs="http://svgjs.com/svgjs" version="1.1" width="512" height="512" x="0" y="0" viewBox="0 0 465 465.536" style="enable-background:new 0 0 512 512" xml:space="preserve" class=""><g><path xmlns="http://www.w3.org/2000/svg" d="m424.269531 225.535156h-400c-13.257812 0-24 10.746094-24 24v72c-.007812 8.507813 3.363281 16.671875 9.367188 22.695313 2.84375 2.808593 6.175781 5.070312 9.832031 6.679687 1.808594.75 3.683594 1.332032 5.597656 1.738282 10.753906 2.328124 21.960938-.851563 29.890625-8.480469 5.972657-6.015625 9.320313-14.152344 9.3125-22.632813v-32c0-17.671875 14.324219-32 32-32 .796875 0 1.535157 0 2.308594.082032.777344.078124 1.386719.261718 2.089844.367187 1.042969.128906 2.078125.308594 3.105469.542969.796874.191406 1.550781.457031 2.320312.71875 1.351562.425781 2.671875.941406 3.949219 1.546875l.488281.261719c10.828125 5.371093 17.691406 16.394531 17.738281 28.480468v48c0 17.675782 14.324219 32 32 32 17.671875 0 32-14.324218 32-32v-48c-.019531-8.488281 3.359375-16.632812 9.382813-22.613281 1.578125-1.570313 3.316406-2.96875 5.183594-4.179687.496093-.328126 1.039062-.542969 1.550781-.796876 1.375-.828124 2.8125-1.546874 4.296875-2.152343.703125-.273438 1.441406-.433594 2.167968-.65625 1.335938-.4375 2.699219-.789063 4.082032-1.046875.894531-.152344 1.796875-.1875 2.710937-.265625.910157-.082031 1.734375-.289063 2.625-.289063.414063 0 .796875.105469 1.207031.121094.40625.015625.742188-.0625 1.128907-.039062.710937.054687 1.382812.261718 2.085937.367187 1.042969.128906 2.078125.308594 3.105469.542969.800781.191406 1.550781.457031 2.320313.71875 1.351562.425781 2.671874.941406 3.949218 1.546875l.488282.261719c10.816406 5.378906 17.671874 16.402343 17.714843 28.480468v16c0 17.675782 14.324219 32 32 32 17.671875 0 32-14.324218 32-32v-16c-.019531-8.488281 3.359375-16.632812 9.382813-22.613281 1.578125-1.570313 3.316406-2.972656 5.183594-4.1875.496093-.320313 1.03125-.527344 1.535156-.796875 1.378906-.832031 2.820312-1.554688 4.3125-2.160156.703125-.273438 1.441406-.433594 2.160156-.65625 1.339844-.4375 2.703125-.789063 4.089844-1.050782.894531-.148437 1.796875-.183593 2.710937-.261718.910157-.082032 1.734375-.273438 2.625-.273438.414063 0 .796875.105469 1.207031.121094.40625.015625.742188-.0625 1.128907-.039062.710937.054687 1.382812.261718 2.085937.367187 1.042969.128906 2.078125.308594 3.105469.542969.800781.191406 1.550781.457031 2.320313.71875 1.351562.425781 2.671874.941406 3.949218 1.546875l.488282.261719c10.816406 5.378906 17.671874 16.402343 17.714843 28.480468v32c-.007812 8.507813 3.363281 16.671875 9.367188 22.695313 9.421875 9.136719 23.390625 11.761719 35.488281 6.664062 11.613281-5.152343 19.113281-16.652343 19.144531-29.359375v-72c0-13.253906-10.746093-24-24-24zm0 0" fill="#ff614d" data-original="#000000" style="" class=""/><path xmlns="http://www.w3.org/2000/svg" d="m72.269531 137.535156h32v72h-32zm0 0" fill="#ff614d" data-original="#000000" style="" class=""/><path xmlns="http://www.w3.org/2000/svg" d="m344.269531 137.535156h32v72h-32zm0 0" fill="#ff614d" data-original="#000000" style="" class=""/><path xmlns="http://www.w3.org/2000/svg" d="m208.269531 121.535156h32v88h-32zm0 0" fill="#ff614d" data-original="#000000" style="" class=""/><path xmlns="http://www.w3.org/2000/svg" d="m224.269531 73.535156c13.253907 0 24-10.746094 24-24 0-8.742187-12.488281-31.542968-24-49.535156-11.511719 17.992188-24 40.800781-24 49.535156 0 13.253906 10.742188 24 24 24zm0 0" fill="#ff614d" data-original="#000000" style="" class=""/><path xmlns="http://www.w3.org/2000/svg" d="m360.269531 89.535156c13.253907 0 24-10.746094 24-24 0-8.742187-12.488281-31.542968-24-49.535156-11.511719 17.992188-24 40.800781-24 49.535156 0 13.253906 10.742188 24 24 24zm0 0" fill="#ff614d" data-original="#000000" style="" class=""/><path xmlns="http://www.w3.org/2000/svg" d="m88.269531 89.535156c13.253907 0 24-10.746094 24-24 0-8.742187-12.488281-31.542968-24-49.535156-11.511719 17.992188-24 40.800781-24 49.535156 0 13.253906 10.742188 24 24 24zm0 0" fill="#ff614d" data-original="#000000" style="" class=""/><path xmlns="http://www.w3.org/2000/svg" d="m440.269531 449.535156h-16v-80.664062c-.800781.136718-1.601562.167968-2.402343.257812l-.800782.085938c-2.21875.222656-4.457031.289062-6.6875.199218h-.054687c-4.632813-.195312-9.210938-1.058593-13.601563-2.558593-.34375-.113281-.671875-.261719-1.007812-.382813-1.6875-.617187-3.339844-1.328125-4.949219-2.128906-.570313-.28125-1.128906-.574219-1.691406-.878906-1.414063-.800782-2.773438-1.601563-4.117188-2.542969-.519531-.363281-1.058593-.699219-1.601562-1.074219-1.785157-1.316406-3.476563-2.753906-5.0625-4.304687-9.003907-9.023438-14.046875-21.257813-14.023438-34.007813v-30.648437c.085938-7.425781-4.53125-14.09375-11.511719-16.628907-.195312-.058593-.378906-.128906-.578124-.179687-.585938-.144531-1.183594-.253906-1.785157-.324219-.496093-.082031-1-.132812-1.503906-.152344-.675781-.019531-1.351563.007813-2.023437.070313-.390626 0-.800782.054687-1.175782.121094-.800781.132812-1.589844.335937-2.359375.597656-.257812.082031-.519531.136719-.800781.234375-.847656.335938-1.667969.742188-2.445312 1.214844-.179688.105468-.363282.175781-.53125.28125-.945313.609375-1.824219 1.316406-2.621094 2.109375-3.003906 2.996093-4.683594 7.066406-4.664063 11.304687v16c0 26.511719-21.492187 48-48 48-26.511719 0-48-21.488281-48-48v-14.648437c.085938-7.425781-4.53125-14.09375-11.511719-16.628907-.195312-.058593-.378906-.128906-.578124-.179687-.585938-.144531-1.183594-.253906-1.785157-.324219-.496093-.082031-1-.132812-1.503906-.152344-.675781-.023437-1.355469.003907-2.03125.070313-.382813 0-.800781.054687-1.152344.113281-.8125.148438-1.613281.355469-2.398437.621094-.222656.074219-.457032.121094-.679688.210938-.886718.34375-1.742187.765624-2.554687 1.261718-.132813.089844-.292969.144532-.429688.234375-4.589843 2.921875-7.367187 7.984375-7.375 13.421875v48c0 26.511719-21.492187 48-48 48-26.511719 0-48-21.488281-48-48v-46.648437c.085938-7.425781-4.53125-14.09375-11.511719-16.628907-.195312-.058593-.378906-.128906-.578124-.179687-.585938-.144531-1.183594-.253906-1.785157-.324219-.496093-.082031-1-.132812-1.503906-.152344-.675781-.019531-1.351563.007813-2.023437.070313-.390626 0-.800782.054687-1.175782.121094-.8125.132812-1.617187.335937-2.398437.597656-.25.082031-.503907.136719-.753907.234375-.851562.335938-1.671874.746094-2.453124 1.222656-.171876.097656-.355469.167969-.523438.273438-.945312.609375-1.824219 1.316406-2.621094 2.109375-3.007812 2.992187-4.691406 7.066406-4.671875 11.304687v32c.199219 15.113282-6.929687 29.390625-19.136719 38.304688-.457031.335937-.929687.632812-1.394531.953125-1.449219 1.007812-2.957031 1.933593-4.511719 2.773437-.40625.226563-.796874.441406-1.222656.640625-1.921875.976563-3.902344 1.828125-5.9375 2.546875-6.648437 2.300782-13.71875 3.121094-20.71875 2.398438l-.617187-.0625c-.796875-.097656-1.597657-.128906-2.398438-.265625v80.710937h-16.0625c-4.417969 0-8 3.582032-8 8 0 4.417969 3.582031 8 8 8h432c4.417969 0 8-3.582031 8-8 0-4.417968-3.582031-8-8-8zm0 0" fill="#ff614d" data-original="#000000" style="" class=""/></g></svg>
