<svg width="150" height="205" viewBox="0 0 150 205" fill="none" xmlns="http://www.w3.org/2000/svg">
<path d="M132.954 78.7006V71.5929C134.762 71.5907 136.495 70.8717 137.773 69.5934C139.051 68.3152 139.77 66.5822 139.772 64.7745V51.1378C139.77 49.3301 139.051 47.597 137.773 46.3188C136.495 45.0406 134.762 44.3215 132.954 44.3194H78.4071C76.5994 44.3215 74.8664 45.0406 73.5882 46.3188C72.31 47.597 71.5909 49.3301 71.5888 51.1378V64.7745C71.5909 66.5822 72.31 68.3152 73.5882 69.5934C74.8664 70.8717 76.5994 71.5907 78.4071 71.5929V78.7006C73.644 79.5118 69.3208 81.9806 66.2016 85.6707C63.0825 89.3607 61.368 94.0346 61.3612 98.8663V184.096C61.3674 189.519 63.5245 194.718 67.3592 198.553C71.1939 202.388 76.3932 204.545 81.8163 204.551H129.545C134.968 204.545 140.167 202.388 144.002 198.553C147.837 194.718 149.994 189.519 150 184.096V98.8663C149.993 94.0346 148.279 89.3607 145.16 85.6707C142.04 81.9806 137.717 79.5118 132.954 78.7006V78.7006ZM78.4071 51.1378H132.954L132.958 64.7745H78.4071V51.1378ZM126.136 71.5929V78.4112H85.2255V71.5929H126.136ZM81.8163 85.2296H129.545C133.16 85.2337 136.627 86.6717 139.183 89.2282C141.74 91.7847 143.178 95.2509 143.182 98.8663H68.1796C68.1836 95.2509 69.6217 91.7847 72.1782 89.2282C74.7347 86.6717 78.2009 85.2337 81.8163 85.2296V85.2296ZM68.1796 105.685H143.182V177.278H68.1796V105.685ZM129.545 197.733H81.8163C78.2009 197.729 74.7347 196.291 72.1782 193.734C69.6217 191.178 68.1836 187.711 68.1796 184.096H143.182C143.178 187.711 141.74 191.178 139.183 193.734C136.627 196.291 133.16 197.729 129.545 197.733V197.733Z" fill="#FF614D"/>
<path d="M40.9061 150.59V47.7286C40.904 45.9209 40.1849 44.1879 38.9067 42.9096C37.6285 41.6314 35.8954 40.9123 34.0877 40.9102V34.0918C34.0878 33.6441 33.9996 33.2008 33.8283 32.7872C33.657 32.3735 33.4058 31.9977 33.0893 31.6811L27.2694 25.8612V3.40918C27.2694 2.50501 26.9102 1.63787 26.2709 0.998527C25.6315 0.359181 24.7644 0 23.8602 0C22.956 0 22.0889 0.359181 21.4495 0.998527C20.8102 1.63787 20.451 2.50501 20.451 3.40918V25.8612L14.6311 31.6811C14.3145 31.9977 14.0634 32.3735 13.8921 32.7872C13.7208 33.2008 13.6326 33.6441 13.6326 34.0918V40.9102C11.825 40.9123 10.0919 41.6314 8.8137 42.9096C7.53547 44.1879 6.81642 45.9209 6.81427 47.7286V150.59C4.54065 151.395 2.62465 152.978 1.40473 155.059C0.1848 157.139 -0.260554 159.584 0.147334 161.961C0.555221 164.338 1.7901 166.495 3.63385 168.05C5.47759 169.605 7.81155 170.458 10.2235 170.459H13.6326V184.682C11.359 185.487 9.44302 187.07 8.22309 189.15C7.00317 191.231 6.55781 193.676 6.9657 196.053C7.37359 198.43 8.60847 200.587 10.4522 202.142C12.296 203.697 14.6299 204.55 17.0418 204.551H30.6786C33.0905 204.55 35.4244 203.697 37.2682 202.142C39.1119 200.587 40.3468 198.43 40.7547 196.053C41.1626 193.676 40.7172 191.231 39.4973 189.15C38.2774 187.07 36.3614 185.487 34.0877 184.682V170.459H37.4969C39.9088 170.458 42.2428 169.605 44.0865 168.05C45.9303 166.495 47.1652 164.338 47.5731 161.961C47.9809 159.584 47.5356 157.139 46.3157 155.059C45.0957 152.978 43.1797 151.395 40.9061 150.59V150.59ZM13.6326 143.186H34.0877V150.004H13.6326V143.186ZM20.451 35.5037L23.8602 32.0945L27.2694 35.5037V40.9102H20.451V35.5037ZM34.0877 47.7286V61.3653H30.6786C29.7744 61.3653 28.9072 61.7245 28.2679 62.3638C27.6286 63.0032 27.2694 63.8703 27.2694 64.7745C27.2694 65.6787 27.6286 66.5458 28.2679 67.1852C28.9072 67.8245 29.7744 68.1837 30.6786 68.1837H34.0877V75.002H30.6786C29.7744 75.002 28.9072 75.3612 28.2679 76.0006C27.6286 76.6399 27.2694 77.5071 27.2694 78.4112C27.2694 79.3154 27.6286 80.1825 28.2679 80.8219C28.9072 81.4612 29.7744 81.8204 30.6786 81.8204H34.0877V88.6388H30.6786C29.7744 88.6388 28.9072 88.998 28.2679 89.6373C27.6286 90.2766 27.2694 91.1438 27.2694 92.048C27.2694 92.9521 27.6286 93.8193 28.2679 94.4586C28.9072 95.098 29.7744 95.4571 30.6786 95.4571H34.0877V102.276H30.6786C29.7744 102.276 28.9072 102.635 28.2679 103.274C27.6286 103.913 27.2694 104.781 27.2694 105.685C27.2694 106.589 27.6286 107.456 28.2679 108.095C28.9072 108.735 29.7744 109.094 30.6786 109.094H34.0877V115.912H30.6786C29.7744 115.912 28.9072 116.271 28.2679 116.911C27.6286 117.55 27.2694 118.417 27.2694 119.321C27.2694 120.226 27.6286 121.093 28.2679 121.732C28.9072 122.371 29.7744 122.731 30.6786 122.731H34.0877V136.367H13.6326V47.7286H34.0877ZM30.6786 197.733H17.0418C16.1377 197.733 15.2705 197.373 14.6312 196.734C13.9918 196.095 13.6326 195.228 13.6326 194.323C13.6326 193.419 13.9918 192.552 14.6312 191.913C15.2705 191.273 16.1377 190.914 17.0418 190.914H30.6786C31.5827 190.914 32.4499 191.273 33.0892 191.913C33.7286 192.552 34.0877 193.419 34.0877 194.323C34.0877 195.228 33.7286 196.095 33.0892 196.734C32.4499 197.373 31.5827 197.733 30.6786 197.733ZM27.2694 184.096H20.451V170.459H27.2694V184.096ZM37.4969 163.641H10.2235C9.31929 163.641 8.45215 163.282 7.8128 162.642C7.17346 162.003 6.81427 161.136 6.81427 160.232C6.81427 159.327 7.17346 158.46 7.8128 157.821C8.45215 157.182 9.31929 156.822 10.2235 156.822H37.4969C38.4011 156.822 39.2682 157.182 39.9076 157.821C40.5469 158.46 40.9061 159.327 40.9061 160.232C40.9061 161.136 40.5469 162.003 39.9076 162.642C39.2682 163.282 38.4011 163.641 37.4969 163.641Z" fill="#FF614D"/>
<path d="M95.4532 132.958C95.4532 130.935 94.8533 128.958 93.7295 127.276C92.6057 125.594 91.0084 124.283 89.1395 123.509C87.2707 122.735 85.2143 122.533 83.2303 122.927C81.2464 123.322 79.424 124.296 77.9936 125.726C76.5633 127.157 75.5892 128.979 75.1946 130.963C74.7999 132.947 75.0025 135.003 75.7766 136.872C76.5507 138.741 77.8616 140.338 79.5435 141.462C81.2254 142.586 83.2028 143.186 85.2256 143.186C87.9371 143.183 90.5367 142.104 92.4541 140.187C94.3714 138.269 95.45 135.67 95.4532 132.958V132.958ZM81.8164 132.958C81.8164 132.284 82.0164 131.625 82.391 131.064C82.7656 130.504 83.298 130.067 83.921 129.809C84.5439 129.55 85.2294 129.483 85.8907 129.614C86.552 129.746 87.1595 130.071 87.6363 130.548C88.113 131.024 88.4377 131.632 88.5693 132.293C88.7008 132.954 88.6333 133.64 88.3753 134.263C88.1172 134.886 87.6803 135.418 87.1196 135.793C86.559 136.167 85.8999 136.367 85.2256 136.367C84.3217 136.366 83.4552 136.007 82.8161 135.368C82.1769 134.729 81.8174 133.862 81.8164 132.958Z" fill="#FF614D"/>
<path d="M105.681 132.958C107.703 132.958 109.681 132.358 111.363 131.235C113.045 130.111 114.356 128.513 115.13 126.645C115.904 124.776 116.106 122.719 115.712 120.735C115.317 118.751 114.343 116.929 112.913 115.499C111.482 114.068 109.66 113.094 107.676 112.7C105.692 112.305 103.636 112.507 101.767 113.282C99.8979 114.056 98.3006 115.367 97.1768 117.048C96.053 118.73 95.4531 120.708 95.4531 122.731C95.4563 125.442 96.5348 128.042 98.4522 129.959C100.37 131.876 102.969 132.955 105.681 132.958V132.958ZM105.681 119.321C106.355 119.321 107.014 119.521 107.575 119.896C108.135 120.271 108.572 120.803 108.83 121.426C109.088 122.049 109.156 122.734 109.024 123.396C108.893 124.057 108.568 124.664 108.091 125.141C107.615 125.618 107.007 125.943 106.346 126.074C105.684 126.206 104.999 126.138 104.376 125.88C103.753 125.622 103.221 125.185 102.846 124.625C102.471 124.064 102.271 123.405 102.271 122.731C102.273 121.827 102.632 120.96 103.271 120.321C103.91 119.682 104.777 119.322 105.681 119.321V119.321Z" fill="#FF614D"/>
<path d="M126.136 122.731C124.113 122.731 122.136 123.33 120.454 124.454C118.772 125.578 117.461 127.175 116.687 129.044C115.913 130.913 115.71 132.97 116.105 134.953C116.499 136.937 117.473 138.76 118.904 140.19C120.334 141.62 122.157 142.595 124.14 142.989C126.124 143.384 128.181 143.181 130.05 142.407C131.919 141.633 133.516 140.322 134.64 138.64C135.763 136.958 136.363 134.981 136.363 132.958C136.36 130.247 135.282 127.647 133.364 125.73C131.447 123.812 128.847 122.734 126.136 122.731V122.731ZM126.136 136.367C125.461 136.367 124.802 136.167 124.242 135.793C123.681 135.418 123.244 134.886 122.986 134.263C122.728 133.64 122.661 132.954 122.792 132.293C122.924 131.632 123.248 131.024 123.725 130.548C124.202 130.071 124.809 129.746 125.471 129.614C126.132 129.483 126.817 129.55 127.44 129.809C128.063 130.067 128.596 130.503 128.97 131.064C129.345 131.625 129.545 132.284 129.545 132.958C129.544 133.862 129.184 134.729 128.545 135.368C127.906 136.007 127.04 136.366 126.136 136.367V136.367Z" fill="#FF614D"/>
<path d="M118.796 146.274C117.984 143.422 116.265 140.912 113.898 139.125C111.531 137.338 108.646 136.371 105.681 136.371C102.715 136.371 99.8303 137.338 97.4636 139.125C95.0969 140.912 93.3772 143.422 92.5651 146.274C87.9363 148.815 85.2256 152.666 85.2256 156.822C85.2256 164.469 94.2105 170.459 105.681 170.459C117.151 170.459 126.136 164.469 126.136 156.822C126.136 152.666 123.425 148.815 118.796 146.274ZM105.681 163.641C97.8762 163.641 92.044 160.041 92.044 156.822C92.044 155.01 93.919 153.052 96.9353 151.713C97.4657 151.477 97.9272 151.11 98.2761 150.646C98.625 150.183 98.8496 149.637 98.9288 149.062C99.1578 147.435 99.9671 145.944 101.208 144.866C102.448 143.788 104.037 143.194 105.681 143.194C107.324 143.194 108.913 143.788 110.154 144.866C111.394 145.944 112.204 147.435 112.433 149.062C112.512 149.637 112.736 150.183 113.085 150.646C113.434 151.11 113.896 151.477 114.426 151.713C117.442 153.052 119.317 155.01 119.317 156.822C119.317 160.041 113.485 163.641 105.681 163.641Z" fill="#FF614D"/>
</svg>
